<svg width="1440" height="162" viewBox="0 0 1440 162" fill="none" xmlns="http://www.w3.org/2000/svg">
<path d="M642.562 29.144C641.602 29.144 640.684 29 639.808 28.712C638.932 28.412 638.242 28.028 637.738 27.56L638.404 26.156C638.884 26.576 639.496 26.924 640.24 27.2C640.984 27.476 641.758 27.614 642.562 27.614C643.294 27.614 643.888 27.53 644.344 27.362C644.8 27.194 645.136 26.966 645.352 26.678C645.568 26.378 645.676 26.042 645.676 25.67C645.676 25.238 645.532 24.89 645.244 24.626C644.968 24.362 644.602 24.152 644.146 23.996C643.702 23.828 643.21 23.684 642.67 23.564C642.13 23.444 641.584 23.306 641.032 23.15C640.492 22.982 639.994 22.772 639.538 22.52C639.094 22.268 638.734 21.932 638.458 21.512C638.182 21.08 638.044 20.528 638.044 19.856C638.044 19.208 638.212 18.614 638.548 18.074C638.896 17.522 639.424 17.084 640.132 16.76C640.852 16.424 641.764 16.256 642.868 16.256C643.6 16.256 644.326 16.352 645.046 16.544C645.766 16.736 646.39 17.012 646.918 17.372L646.324 18.812C645.784 18.452 645.214 18.194 644.614 18.038C644.014 17.87 643.432 17.786 642.868 17.786C642.16 17.786 641.578 17.876 641.122 18.056C640.666 18.236 640.33 18.476 640.114 18.776C639.91 19.076 639.808 19.412 639.808 19.784C639.808 20.228 639.946 20.582 640.222 20.846C640.51 21.11 640.876 21.32 641.32 21.476C641.776 21.632 642.274 21.776 642.814 21.908C643.354 22.028 643.894 22.166 644.434 22.322C644.986 22.478 645.484 22.682 645.928 22.934C646.384 23.186 646.75 23.522 647.026 23.942C647.302 24.362 647.44 24.902 647.44 25.562C647.44 26.198 647.266 26.792 646.918 27.344C646.57 27.884 646.03 28.322 645.298 28.658C644.578 28.982 643.666 29.144 642.562 29.144ZM663.606 16.4H665.406V29H663.606V16.4ZM656.37 29H654.57V16.4H656.37V29ZM663.768 23.384H656.19V21.818H663.768V23.384ZM679.365 29.144C678.405 29.144 677.511 28.982 676.683 28.658C675.867 28.334 675.159 27.884 674.559 27.308C673.959 26.72 673.491 26.036 673.155 25.256C672.819 24.476 672.651 23.624 672.651 22.7C672.651 21.776 672.819 20.924 673.155 20.144C673.491 19.364 673.959 18.686 674.559 18.11C675.159 17.522 675.867 17.066 676.683 16.742C677.499 16.418 678.393 16.256 679.365 16.256C680.325 16.256 681.207 16.418 682.011 16.742C682.827 17.054 683.535 17.504 684.135 18.092C684.747 18.668 685.215 19.346 685.539 20.126C685.875 20.906 686.043 21.764 686.043 22.7C686.043 23.636 685.875 24.494 685.539 25.274C685.215 26.054 684.747 26.738 684.135 27.326C683.535 27.902 682.827 28.352 682.011 28.676C681.207 28.988 680.325 29.144 679.365 29.144ZM679.365 27.542C680.061 27.542 680.703 27.422 681.291 27.182C681.891 26.942 682.407 26.606 682.839 26.174C683.283 25.73 683.625 25.214 683.865 24.626C684.117 24.038 684.243 23.396 684.243 22.7C684.243 22.004 684.117 21.362 683.865 20.774C683.625 20.186 683.283 19.676 682.839 19.244C682.407 18.8 681.891 18.458 681.291 18.218C680.703 17.978 680.061 17.858 679.365 17.858C678.657 17.858 678.003 17.978 677.403 18.218C676.815 18.458 676.299 18.8 675.855 19.244C675.411 19.676 675.063 20.186 674.811 20.774C674.571 21.362 674.451 22.004 674.451 22.7C674.451 23.396 674.571 24.038 674.811 24.626C675.063 25.214 675.411 25.73 675.855 26.174C676.299 26.606 676.815 26.942 677.403 27.182C678.003 27.422 678.657 27.542 679.365 27.542ZM693.294 29V16.4H698.208C699.312 16.4 700.254 16.574 701.034 16.922C701.814 17.27 702.414 17.774 702.834 18.434C703.254 19.094 703.464 19.88 703.464 20.792C703.464 21.704 703.254 22.49 702.834 23.15C702.414 23.798 701.814 24.302 701.034 24.662C700.254 25.01 699.312 25.184 698.208 25.184H694.284L695.094 24.338V29H693.294ZM695.094 24.518L694.284 23.618H698.154C699.306 23.618 700.176 23.372 700.764 22.88C701.364 22.388 701.664 21.692 701.664 20.792C701.664 19.892 701.364 19.196 700.764 18.704C700.176 18.212 699.306 17.966 698.154 17.966H694.284L695.094 17.066V24.518ZM723.449 29.144C722.597 29.144 721.841 29.006 721.181 28.73C720.521 28.454 719.999 28.07 719.615 27.578C719.231 27.086 719.039 26.516 719.039 25.868C719.039 25.304 719.165 24.788 719.417 24.32C719.669 23.852 720.071 23.402 720.623 22.97C721.175 22.526 721.901 22.07 722.801 21.602C723.533 21.218 724.103 20.882 724.511 20.594C724.931 20.306 725.225 20.036 725.393 19.784C725.573 19.52 725.663 19.238 725.663 18.938C725.663 18.53 725.519 18.2 725.231 17.948C724.943 17.684 724.529 17.552 723.989 17.552C723.425 17.552 722.981 17.696 722.657 17.984C722.345 18.26 722.189 18.626 722.189 19.082C722.189 19.31 722.225 19.532 722.297 19.748C722.381 19.952 722.525 20.186 722.729 20.45C722.945 20.702 723.251 21.026 723.647 21.422L730.307 28.046L729.335 29.198L722.261 22.16C721.841 21.74 721.511 21.368 721.271 21.044C721.031 20.708 720.857 20.384 720.749 20.072C720.641 19.76 720.587 19.442 720.587 19.118C720.587 18.554 720.725 18.062 721.001 17.642C721.289 17.21 721.685 16.88 722.189 16.652C722.705 16.412 723.305 16.292 723.989 16.292C724.625 16.292 725.177 16.4 725.645 16.616C726.113 16.82 726.473 17.12 726.725 17.516C726.989 17.9 727.121 18.368 727.121 18.92C727.121 19.4 727.001 19.844 726.761 20.252C726.533 20.66 726.161 21.056 725.645 21.44C725.129 21.824 724.433 22.238 723.557 22.682C722.837 23.054 722.273 23.402 721.865 23.726C721.457 24.038 721.163 24.35 720.983 24.662C720.815 24.974 720.731 25.316 720.731 25.688C720.731 26.084 720.845 26.438 721.073 26.75C721.313 27.05 721.643 27.284 722.063 27.452C722.495 27.62 722.993 27.704 723.557 27.704C724.361 27.704 725.087 27.53 725.735 27.182C726.383 26.834 726.923 26.312 727.355 25.616C727.799 24.92 728.123 24.056 728.327 23.024L729.713 23.474C729.473 24.686 729.059 25.712 728.471 26.552C727.895 27.392 727.181 28.034 726.329 28.478C725.477 28.922 724.517 29.144 723.449 29.144ZM749.964 29.144C749.004 29.144 748.086 29 747.21 28.712C746.334 28.412 745.644 28.028 745.14 27.56L745.806 26.156C746.286 26.576 746.898 26.924 747.642 27.2C748.386 27.476 749.16 27.614 749.964 27.614C750.696 27.614 751.29 27.53 751.746 27.362C752.202 27.194 752.538 26.966 752.754 26.678C752.97 26.378 753.078 26.042 753.078 25.67C753.078 25.238 752.934 24.89 752.646 24.626C752.37 24.362 752.004 24.152 751.548 23.996C751.104 23.828 750.612 23.684 750.072 23.564C749.532 23.444 748.986 23.306 748.434 23.15C747.894 22.982 747.396 22.772 746.94 22.52C746.496 22.268 746.136 21.932 745.86 21.512C745.584 21.08 745.446 20.528 745.446 19.856C745.446 19.208 745.614 18.614 745.95 18.074C746.298 17.522 746.826 17.084 747.534 16.76C748.254 16.424 749.166 16.256 750.27 16.256C751.002 16.256 751.728 16.352 752.448 16.544C753.168 16.736 753.792 17.012 754.32 17.372L753.726 18.812C753.186 18.452 752.616 18.194 752.016 18.038C751.416 17.87 750.834 17.786 750.27 17.786C749.562 17.786 748.98 17.876 748.524 18.056C748.068 18.236 747.732 18.476 747.516 18.776C747.312 19.076 747.21 19.412 747.21 19.784C747.21 20.228 747.348 20.582 747.624 20.846C747.912 21.11 748.278 21.32 748.722 21.476C749.178 21.632 749.676 21.776 750.216 21.908C750.756 22.028 751.296 22.166 751.836 22.322C752.388 22.478 752.886 22.682 753.33 22.934C753.786 23.186 754.152 23.522 754.428 23.942C754.704 24.362 754.842 24.902 754.842 25.562C754.842 26.198 754.668 26.792 754.32 27.344C753.972 27.884 753.432 28.322 752.7 28.658C751.98 28.982 751.068 29.144 749.964 29.144ZM763.61 21.836H770.09V23.366H763.61V21.836ZM763.772 27.434H771.116V29H761.972V16.4H770.864V17.966H763.772V27.434ZM778.531 29V16.4H780.331V27.434H787.153V29H778.531ZM793.718 29V16.4H795.518V27.434H802.34V29H793.718Z" fill="black"/>
<path d="M513.5 118L506.052 56.44H517.604L521.252 92.312L525.888 56.516H534.932L539.796 92.084L543.52 56.44H554.92L547.548 118H535.692L530.448 80.836L525.508 118H513.5ZM557.22 118V56.44H570.824V81.368H580.4V56.44H594.004V118H580.4V91.096H570.824V118H557.22ZM595.855 118L607.483 56.44H622.987L634.463 118H621.923L619.871 105.004H610.827L608.699 118H595.855ZM612.043 96.872H618.579L615.311 72.856L612.043 96.872ZM638.252 118V66.548H628.98V56.44H661.128V66.548H651.932V118H638.252ZM684.625 118V92.844L672.921 56.44H685.765L691.617 75.896L696.861 56.44H709.173L697.697 92.844V118H684.625ZM726.164 118.912C721.553 118.912 717.905 118.101 715.22 116.48C712.535 114.859 710.609 112.528 709.444 109.488C708.279 106.448 707.696 102.825 707.696 98.62V75.744C707.696 71.488 708.279 67.8653 709.444 64.876C710.609 61.8867 712.535 59.6067 715.22 58.036C717.905 56.4147 721.553 55.604 726.164 55.604C730.825 55.604 734.499 56.4147 737.184 58.036C739.92 59.6067 741.871 61.8867 743.036 64.876C744.201 67.8653 744.784 71.488 744.784 75.744V98.62C744.784 102.825 744.201 106.448 743.036 109.488C741.871 112.528 739.92 114.859 737.184 116.48C734.499 118.101 730.825 118.912 726.164 118.912ZM726.164 109.26C727.583 109.26 728.621 108.905 729.28 108.196C729.939 107.487 730.369 106.575 730.572 105.46C730.775 104.345 730.876 103.205 730.876 102.04V72.4C730.876 71.184 730.775 70.044 730.572 68.98C730.369 67.8653 729.939 66.9533 729.28 66.244C728.621 65.5347 727.583 65.18 726.164 65.18C724.847 65.18 723.859 65.5347 723.2 66.244C722.541 66.9533 722.111 67.8653 721.908 68.98C721.705 70.044 721.604 71.184 721.604 72.4V102.04C721.604 103.205 721.68 104.345 721.832 105.46C722.035 106.575 722.44 107.487 723.048 108.196C723.707 108.905 724.745 109.26 726.164 109.26ZM766.287 118.912C761.575 118.912 757.877 118.152 755.191 116.632C752.557 115.061 750.707 112.807 749.643 109.868C748.579 106.879 748.047 103.231 748.047 98.924V56.44H761.499V100.976C761.499 102.243 761.601 103.509 761.803 104.776C762.006 106.043 762.437 107.081 763.095 107.892C763.805 108.703 764.869 109.108 766.287 109.108C767.757 109.108 768.821 108.703 769.479 107.892C770.138 107.081 770.543 106.043 770.695 104.776C770.898 103.509 770.999 102.243 770.999 100.976V56.44H784.527V98.924C784.527 103.231 783.97 106.879 782.855 109.868C781.791 112.807 779.942 115.061 777.307 116.632C774.673 118.152 770.999 118.912 766.287 118.912ZM803.508 118V56.44H817.112V108.804H831.248V118H803.508ZM849.311 118.912C844.7 118.912 841.052 118.101 838.367 116.48C835.681 114.859 833.756 112.528 832.591 109.488C831.425 106.448 830.843 102.825 830.843 98.62V75.744C830.843 71.488 831.425 67.8653 832.591 64.876C833.756 61.8867 835.681 59.6067 838.367 58.036C841.052 56.4147 844.7 55.604 849.311 55.604C853.972 55.604 857.645 56.4147 860.331 58.036C863.067 59.6067 865.017 61.8867 866.183 64.876C867.348 67.8653 867.931 71.488 867.931 75.744V98.62C867.931 102.825 867.348 106.448 866.183 109.488C865.017 112.528 863.067 114.859 860.331 116.48C857.645 118.101 853.972 118.912 849.311 118.912ZM849.311 109.26C850.729 109.26 851.768 108.905 852.427 108.196C853.085 107.487 853.516 106.575 853.719 105.46C853.921 104.345 854.023 103.205 854.023 102.04V72.4C854.023 71.184 853.921 70.044 853.719 68.98C853.516 67.8653 853.085 66.9533 852.427 66.244C851.768 65.5347 850.729 65.18 849.311 65.18C847.993 65.18 847.005 65.5347 846.347 66.244C845.688 66.9533 845.257 67.8653 845.055 68.98C844.852 70.044 844.751 71.184 844.751 72.4V102.04C844.751 103.205 844.827 104.345 844.979 105.46C845.181 106.575 845.587 107.487 846.195 108.196C846.853 108.905 847.892 109.26 849.311 109.26ZM879.264 118L868.168 56.44H879.796L886.408 98.24L892.564 56.44H904.876L893.628 118H879.264ZM906.5 118V56.44H934.164V65.712H920.104V80.988H930.82V90.412H920.104V108.804H934.316V118H906.5Z" fill="black"/>
</svg>
